<svg width="554" height="382" viewBox="0 0 554 382" fill="none" xmlns="http://www.w3.org/2000/svg">
<path d="M123.513 80.4706L123.5 81.5H122.602C110.626 95.2104 100.908 113.032 91.5 139.5H101C123.645 88.1628 141.703 72.7621 178 55.5V42.5C154.695 54.5005 137.549 64.7927 123.513 80.4706Z" fill="white"/>
<path d="M178 1H124.5L123.513 80.4706C137.549 64.7927 154.695 54.5005 178 42.5V1Z" fill="#33B7FB"/>
<path d="M75.5 81.5V139.5H91.5C100.908 113.032 110.626 95.2104 122.602 81.5H75.5Z" fill="#33B7FB"/>
<path d="M266 80.5H178V55.5C141.703 72.7621 123.645 88.1628 101 139.5H123.5V220H179.5V139.5H266V80.5Z" fill="#0046AA"/>
<path d="M178 55.5V80.5H266V139.5H179.5V220H123.5V139.5H101M178 55.5C141.703 72.7621 123.645 88.1628 101 139.5M178 55.5V42.5M101 139.5H91.5M91.5 139.5H75.5V81.5H122.602M91.5 139.5C100.908 113.032 110.626 95.2104 122.602 81.5M178 42.5V1H124.5L123.513 80.4706M178 42.5C154.695 54.5005 137.549 64.7927 123.513 80.4706M123.513 80.4706L123.5 81.5H122.602M123.513 80.4706C123.208 80.8112 122.904 81.1543 122.602 81.5" stroke="white"/>
<path fill-rule="evenodd" clip-rule="evenodd" d="M320 82.5C210.5 -3.49998 50 112 124.5 249.5L136.5 266.5L148 281.5L157 295.5L160.518 303.123C162.168 306.698 163.446 310.434 164.332 314.27V314.27C165.439 319.07 165.924 323.993 165.775 328.916L165.703 331.305C165.568 335.746 164.808 340.163 163.453 344.396V344.396C162.16 348.437 160.325 352.301 158.007 355.855V355.855C155.352 359.927 152.085 363.567 148.322 366.646L147.77 367.097C144.601 369.69 141.137 371.899 137.449 373.68L136.242 374.263C131.104 376.743 125.655 378.517 120.042 379.538L119.122 379.705C114.386 380.566 109.575 380.938 104.764 380.814L101.018 380.718C95.3538 380.573 89.7184 379.858 84.1972 378.584V378.584C76.7666 376.869 69.5416 374.123 62.8396 370.484V370.484C57.9874 367.85 53.3231 364.698 49.0698 361.178V361.178C43.7386 356.766 38.913 351.693 34.7838 346.14L32.2208 342.693C28.4128 337.572 25.0126 332.16 22.0514 326.507L15.5 314L8 293L4 275.5L2.41421 264.399C1.47259 257.808 1 251.158 1 244.5V244.5V216.5L1.07919 215.761C2.02458 206.937 3.74088 198.213 6.20841 189.689L8 183.5L11.6329 174.645C14.5402 167.558 17.9788 160.702 21.9196 154.134L23.5 151.5L28.8443 144.883C31.7759 141.254 31.4971 135.997 28.198 132.698V132.698C27.4061 131.906 26.7668 130.975 26.3119 129.952L24.1956 125.19C22.0929 120.459 21.096 115.311 21.2808 110.137V110.137C21.4258 106.078 22.2951 102.078 23.8479 98.3259L25.2324 94.98C26.7314 91.3574 28.8825 88.0407 31.5788 85.1946V85.1946C34.8197 81.7737 38.7954 79.1018 43.1837 77.3846V77.3846C46.3647 76.1399 49.7378 75.4035 53.1484 75.214L57 75L61.0737 75.2144C64.6656 75.4035 68.2001 76.1955 71.5292 77.5574V77.5574C75.4702 79.1696 79.0507 81.5507 82.0616 84.5616L82.5518 85.0518C85.4937 87.9937 87.8876 91.4365 89.6211 95.2187V95.2187C91.522 99.3662 92.5938 103.845 92.7762 108.404L92.8344 109.861C92.9444 112.61 92.7162 115.362 92.1551 118.056V118.056C91.0673 123.277 88.7521 128.164 85.401 132.313L85.2105 132.549C81.7846 136.79 77.4115 140.169 72.4425 142.413L71.8636 142.675C67.0101 144.866 61.7457 146 56.4203 146H51.572C49.8736 146 48.1914 145.669 46.6195 145.026V145.026C41.4602 142.916 35.5302 144.307 31.8477 148.491L28.245 152.585C27.4167 153.526 26.6755 154.541 26.0304 155.616L21 164L18.3862 169.663C14.1394 178.865 10.8234 188.468 8.48783 198.329L7.5 202.5L6.50013 208.999C5.1692 217.65 4.588 226.4 4.76302 235.151L5 247L6.42068 262.059C7.1392 269.676 8.43168 277.227 10.2871 284.648L12 291.5L16.1069 302.537C18.6988 309.503 21.7981 316.269 25.3798 322.782L31 333L39.0958 344.094C42.6854 349.013 46.8571 353.48 51.5199 357.397V357.397C55.1651 360.459 59.0918 363.169 63.2476 365.491L64.2029 366.025C70.7029 369.657 77.6754 372.37 84.921 374.087V374.087C90.2928 375.359 95.7811 376.075 101.299 376.224L105.101 376.327C109.358 376.442 113.617 376.169 117.825 375.512L120.411 375.108C125.114 374.373 129.692 372.988 134.014 370.993L134.313 370.855C138.418 368.961 142.241 366.508 145.674 363.565L145.927 363.349C149.292 360.464 152.229 357.115 154.65 353.403L155.406 352.244C157.457 349.099 159.025 345.664 160.056 342.054V342.054C161.014 338.701 161.5 335.231 161.5 331.744V324.898C161.5 322.636 161.327 320.377 160.983 318.141V318.141C160.661 316.05 160.191 313.984 159.575 311.96L159.282 310.999C157.768 306.022 155.595 301.269 152.824 296.867L148.5 290L139.5 276.5L127.5 261L117.5 247.5L112.367 238.26C109.128 232.43 106.389 226.337 104.178 220.046V220.046C102.063 214.025 100.439 207.843 99.3218 201.56L98.9108 199.248C97.6387 192.093 96.8987 184.852 96.6969 177.587L96.5 170.5L96.9261 166.239C97.9725 155.775 100.102 145.447 103.281 135.422L105 130L107.101 125.181C111.353 115.425 116.693 106.18 123.019 97.621L124.182 96.0482C128.386 90.3606 133.086 85.0575 138.228 80.2014V80.2014C145.052 73.7562 152.612 68.1377 160.751 63.462L161.701 62.9164C168.553 58.9805 175.752 55.6836 183.207 53.0676L189.088 51.0042C196.677 48.3413 204.512 46.4401 212.478 45.3287V45.3287C218.816 44.4443 225.214 44.063 231.613 44.1885L233.266 44.2209C242.722 44.4063 252.124 45.7062 261.276 48.0937V48.0937C267.416 49.6954 273.419 51.7803 279.23 54.3291L292.055 59.9538C296.672 61.9789 301.061 64.4885 305.148 67.4403L316.687 75.7741C316.894 75.9231 317.068 76.1126 317.199 76.3309L320.572 81.9541C320.795 82.325 320.36 82.7399 320 82.5V82.5ZM26 110.602C26 115.456 27.218 120.233 29.5424 124.494L29.8345 125.03C31.2707 127.663 33.0769 130.077 35.1978 132.198L37.869 134.869C39.9359 136.936 42.3916 138.573 45.0944 139.686V139.686C47.9982 140.882 51.1232 141.446 54.2618 141.341L57.6945 141.227C62.1786 141.077 66.5775 139.961 70.5904 137.955V137.955C73.8385 136.331 76.7776 134.151 79.2751 131.515L79.3684 131.417C82.7409 127.857 85.2162 123.544 86.5892 118.837V118.837C87.5235 115.634 87.932 112.3 87.7986 108.965L87.7568 107.92C87.5877 103.693 86.4777 99.5576 84.5076 95.8144V95.8144C83.1768 93.2859 81.4725 90.9725 79.4521 88.9521L78.2637 87.7637C76.4305 85.9305 74.347 84.3659 72.0753 83.1164V83.1164C67.7706 80.7488 62.9098 79.5785 57.9992 79.7273L54.291 79.8397C50.7971 79.9455 47.3571 80.7302 44.1628 82.1499V82.1499C41.4071 83.3746 38.8766 85.0532 36.6767 87.1156L36.2039 87.5589C33.4254 90.1637 31.1545 93.2615 29.5064 96.6949L28.857 98.048C26.9764 101.966 26 106.256 26 110.602V110.602Z" fill="#0046AA"/>
<path d="M35.1978 132.198C33.0769 130.077 31.2707 127.663 29.8345 125.03L29.5424 124.494C27.218 120.233 26 115.456 26 110.602V110.602C26 106.256 26.9764 101.966 28.857 98.048L29.5064 96.6949C31.1545 93.2615 33.4254 90.1637 36.2039 87.5589L36.6767 87.1156C38.8766 85.0532 41.4071 83.3746 44.1628 82.1499V82.1499C47.3571 80.7302 50.7971 79.9455 54.291 79.8397L57.9992 79.7273C62.9098 79.5785 67.7706 80.7488 72.0753 83.1164V83.1164C74.347 84.3659 76.4305 85.9305 78.2637 87.7637L79.4521 88.9521C81.4725 90.9725 83.1768 93.2859 84.5076 95.8144V95.8144C86.4777 99.5576 87.5877 103.693 87.7568 107.92L87.7986 108.965C87.932 112.3 87.5235 115.634 86.5892 118.837V118.837C85.2162 123.544 82.7409 127.857 79.3684 131.417L79.2751 131.515C76.7776 134.151 73.8385 136.331 70.5904 137.955V137.955C66.5775 139.961 62.1786 141.077 57.6945 141.227L54.2618 141.341C51.1232 141.446 47.9982 140.882 45.0944 139.686V139.686C42.3916 138.573 39.9359 136.936 37.869 134.869L35.1978 132.198Z" fill="white"/>
<path fill-rule="evenodd" clip-rule="evenodd" d="M320 82.5C210.5 -3.49998 50 112 124.5 249.5L136.5 266.5L148 281.5L157 295.5L160.518 303.123C162.168 306.698 163.446 310.434 164.332 314.27V314.27C165.439 319.07 165.924 323.993 165.775 328.916L165.703 331.305C165.568 335.746 164.808 340.163 163.453 344.396V344.396C162.16 348.437 160.325 352.301 158.007 355.855V355.855C155.352 359.927 152.085 363.567 148.322 366.646L147.77 367.097C144.601 369.69 141.137 371.899 137.449 373.68L136.242 374.263C131.104 376.743 125.655 378.517 120.042 379.538L119.122 379.705C114.386 380.566 109.575 380.938 104.764 380.814L101.018 380.718C95.3538 380.573 89.7184 379.858 84.1972 378.584V378.584C76.7666 376.869 69.5416 374.123 62.8396 370.484V370.484C57.9874 367.85 53.3231 364.698 49.0698 361.178V361.178C43.7386 356.766 38.913 351.693 34.7838 346.14L32.2208 342.693C28.4128 337.572 25.0126 332.16 22.0514 326.507L15.5 314L8 293L4 275.5L2.41421 264.399C1.47259 257.808 1 251.158 1 244.5V244.5V216.5L1.07919 215.761C2.02458 206.937 3.74088 198.213 6.20841 189.689L8 183.5L11.6329 174.645C14.5402 167.558 17.9788 160.702 21.9196 154.134L23.5 151.5L28.8443 144.883C31.7759 141.254 31.4971 135.997 28.198 132.698V132.698C27.4061 131.906 26.7668 130.975 26.3119 129.952L24.1956 125.19C22.0929 120.459 21.096 115.311 21.2808 110.137V110.137C21.4258 106.078 22.2951 102.078 23.8479 98.3259L25.2324 94.98C26.7314 91.3574 28.8825 88.0407 31.5788 85.1946V85.1946C34.8197 81.7737 38.7954 79.1018 43.1837 77.3846V77.3846C46.3647 76.1399 49.7378 75.4035 53.1484 75.214L57 75L61.0737 75.2144C64.6656 75.4035 68.2001 76.1955 71.5292 77.5574V77.5574C75.4702 79.1696 79.0507 81.5507 82.0616 84.5616L82.5518 85.0518C85.4937 87.9937 87.8876 91.4365 89.6211 95.2187V95.2187C91.522 99.3662 92.5938 103.845 92.7762 108.404L92.8344 109.861C92.9444 112.61 92.7162 115.362 92.1551 118.056V118.056C91.0673 123.277 88.7521 128.164 85.401 132.313L85.2105 132.549C81.7846 136.79 77.4115 140.169 72.4425 142.413L71.8636 142.675C67.0101 144.866 61.7457 146 56.4203 146H51.572C49.8736 146 48.1914 145.669 46.6195 145.026V145.026C41.4602 142.916 35.5302 144.307 31.8477 148.491L28.245 152.585C27.4167 153.526 26.6755 154.541 26.0304 155.616L21 164L18.3862 169.663C14.1394 178.865 10.8234 188.468 8.48783 198.329L7.5 202.5L6.50013 208.999C5.1692 217.65 4.588 226.4 4.76302 235.151L5 247L6.42068 262.059C7.1392 269.676 8.43168 277.227 10.2871 284.648L12 291.5L16.1069 302.537C18.6988 309.503 21.7981 316.269 25.3798 322.782L31 333L39.0958 344.094C42.6854 349.013 46.8571 353.48 51.5199 357.397V357.397C55.1651 360.459 59.0918 363.169 63.2476 365.491L64.2029 366.025C70.7029 369.657 77.6754 372.37 84.921 374.087V374.087C90.2928 375.359 95.7811 376.075 101.299 376.224L105.101 376.327C109.358 376.442 113.617 376.169 117.825 375.512L120.411 375.108C125.114 374.373 129.692 372.988 134.014 370.993L134.313 370.855C138.418 368.961 142.241 366.508 145.674 363.565L145.927 363.349C149.292 360.464 152.229 357.115 154.65 353.403L155.406 352.244C157.457 349.099 159.025 345.664 160.056 342.054V342.054C161.014 338.701 161.5 335.231 161.5 331.744V324.898C161.5 322.636 161.327 320.377 160.983 318.141V318.141C160.661 316.05 160.191 313.984 159.575 311.96L159.282 310.999C157.768 306.022 155.595 301.269 152.824 296.867L148.5 290L139.5 276.5L127.5 261L117.5 247.5L112.367 238.26C109.128 232.43 106.389 226.337 104.178 220.046V220.046C102.063 214.025 100.439 207.843 99.3218 201.56L98.9108 199.248C97.6387 192.093 96.8987 184.852 96.6969 177.587L96.5 170.5L96.9261 166.239C97.9725 155.775 100.102 145.447 103.281 135.422L105 130L107.101 125.181C111.353 115.425 116.693 106.18 123.019 97.621L124.182 96.0482C128.386 90.3606 133.086 85.0575 138.228 80.2014V80.2014C145.052 73.7562 152.612 68.1377 160.751 63.462L161.701 62.9164C168.553 58.9805 175.752 55.6836 183.207 53.0676L189.088 51.0042C196.677 48.3413 204.512 46.4401 212.478 45.3287V45.3287C218.816 44.4443 225.214 44.063 231.613 44.1885L233.266 44.2209C242.722 44.4063 252.124 45.7062 261.276 48.0937V48.0937C267.416 49.6954 273.419 51.7803 279.23 54.3291L292.055 59.9538C296.672 61.9789 301.061 64.4885 305.148 67.4403L316.687 75.7741C316.894 75.9231 317.068 76.1126 317.199 76.3309L320.572 81.9541C320.795 82.325 320.36 82.7399 320 82.5V82.5ZM26 110.602C26 115.456 27.218 120.233 29.5424 124.494L29.8345 125.03C31.2707 127.663 33.0769 130.077 35.1978 132.198L37.869 134.869C39.9359 136.936 42.3916 138.573 45.0944 139.686V139.686C47.9982 140.882 51.1232 141.446 54.2618 141.341L57.6945 141.227C62.1786 141.077 66.5775 139.961 70.5904 137.955V137.955C73.8385 136.331 76.7776 134.151 79.2751 131.515L79.3684 131.417C82.7409 127.857 85.2162 123.544 86.5892 118.837V118.837C87.5235 115.634 87.932 112.3 87.7986 108.965L87.7568 107.92C87.5877 103.693 86.4777 99.5576 84.5076 95.8144V95.8144C83.1768 93.2859 81.4725 90.9725 79.4521 88.9521L78.2637 87.7637C76.4305 85.9305 74.347 84.3659 72.0753 83.1164V83.1164C67.7706 80.7488 62.9098 79.5785 57.9992 79.7273L54.291 79.8397C50.7971 79.9455 47.3571 80.7302 44.1628 82.1499V82.1499C41.4071 83.3746 38.8766 85.0532 36.6767 87.1156L36.2039 87.5589C33.4254 90.1637 31.1545 93.2615 29.5064 96.6949L28.857 98.048C26.9764 101.966 26 106.256 26 110.602V110.602Z" stroke="black"/>
<path d="M35.1978 132.198C33.0769 130.077 31.2707 127.663 29.8345 125.03L29.5424 124.494C27.218 120.233 26 115.456 26 110.602V110.602C26 106.256 26.9764 101.966 28.857 98.048L29.5064 96.6949C31.1545 93.2615 33.4254 90.1637 36.2039 87.5589L36.6767 87.1156C38.8766 85.0532 41.4071 83.3746 44.1628 82.1499V82.1499C47.3571 80.7302 50.7971 79.9455 54.291 79.8397L57.9992 79.7273C62.9098 79.5785 67.7706 80.7488 72.0753 83.1164V83.1164C74.347 84.3659 76.4305 85.9305 78.2637 87.7637L79.4521 88.9521C81.4725 90.9725 83.1768 93.2859 84.5076 95.8144V95.8144C86.4777 99.5576 87.5877 103.693 87.7568 107.92L87.7986 108.965C87.932 112.3 87.5235 115.634 86.5892 118.837V118.837C85.2162 123.544 82.7409 127.857 79.3684 131.417L79.2751 131.515C76.7776 134.151 73.8385 136.331 70.5904 137.955V137.955C66.5775 139.961 62.1786 141.077 57.6945 141.227L54.2618 141.341C51.1232 141.446 47.9982 140.882 45.0944 139.686V139.686C42.3916 138.573 39.9359 136.936 37.869 134.869L35.1978 132.198Z" stroke="black"/>
<circle cx="56.5" cy="111.5" r="23.5" fill="#37B4FA"/>
<path d="M219.5 261.5V226.5H247.5V261.5H269V177H247.5V208H219.5V177H198V261.5H219.5Z" fill="#0046AA"/>
<path fill-rule="evenodd" clip-rule="evenodd" d="M305.646 255.834C312.102 259.546 319.419 261.5 326.867 261.5H329.476C336.668 261.5 343.703 259.395 349.713 255.446L350.036 255.233C355.253 251.805 359.47 247.06 362.262 241.477V241.477C364.72 236.56 366 231.138 366 225.641V215.865C366 209.378 364.489 202.979 361.588 197.176L360.217 194.435C357.466 188.932 353.165 184.354 347.845 181.265V181.265C343.034 178.471 337.57 177 332.007 177H324.368C318.54 177 312.797 178.39 307.614 181.056V181.056C301.338 184.283 296.129 189.254 292.611 195.372L291.962 196.5C288.383 202.724 286.5 209.779 286.5 216.958V225.043C286.5 230.915 288.012 236.689 290.891 241.807V241.807C293.908 247.169 298.315 251.619 303.649 254.686L305.646 255.834ZM314.58 199.458C311.306 203.03 309.447 207.672 309.35 212.517L309.16 222.001C309.057 227.154 310.846 232.167 314.188 236.09L316.468 238.767C319.026 241.77 322.773 243.5 326.718 243.5V243.5C330.984 243.5 334.998 241.478 337.537 238.05L339.542 235.344C342.112 231.873 343.5 227.669 343.5 223.35V211.81C343.5 207.41 341.957 203.149 339.14 199.768L337.792 198.15C335.072 194.887 331.044 193 326.796 193V193C322.784 193 318.956 194.684 316.245 197.641L314.58 199.458Z" fill="#0046AA"/>
<path d="M383.5 261.5V177H411.5L431.5 238L451 177H479V261.5H459V200.5L440.5 260.5H420.5L402.5 200.5V261.5H383.5Z" fill="#0046AA"/>
<path d="M499 261.5V177H548V194.5H521V209.5H545.5V226.5H521V243.5H548V261.5H499Z" fill="#0046AA"/>
<path fill-rule="evenodd" clip-rule="evenodd" d="M496.5 345.5L525 277L553 345.5H548L538.5 321.5H511L502 345.5H496.5ZM525 286L511 318H538.5L525 286Z" fill="#0046AA"/>
<path d="M409.5 345.5V278.5H416L440.5 338.5L465.5 278.5H472V345.5H468V284L442.5 344H439.5L413.5 284V345.5H409.5Z" fill="#0046AA"/>
<path fill-rule="evenodd" clip-rule="evenodd" d="M338.5 345.5V279.5H352.752C359.23 279.5 366.416 278.985 371.5 283V283C372.638 284.078 373.563 284.991 374.379 285.894C377.137 288.944 378 293.162 378 297.274V301.037C378 303.613 377.184 306.122 375.669 308.205V308.205C374.571 309.715 373.141 310.952 371.489 311.822L364.5 315.5C370.167 325.5 381.4 345.5 381 345.5H377L360.5 317H342V345.5H338.5ZM342 283V313H359.187C361.366 313 363.514 312.493 365.463 311.518L365.542 311.479C366.839 310.831 368.023 309.977 369.048 308.952V308.952C371.578 306.422 373 302.99 373 299.411V294.991C373 292.397 372.178 289.87 370.653 287.773V287.773C369.565 286.277 368.18 284.979 366.455 284.313C365.622 283.992 364.787 283.739 363.825 283.504C362.289 283.127 360.703 283 359.122 283H342Z" fill="#0046AA"/>
<path fill-rule="evenodd" clip-rule="evenodd" d="M256.5 345.5L285.5 277L314 345.5H309L299 321.5H271L262 345.5H256.5ZM285.5 286L273 318H298L285.5 286Z" fill="#0046AA"/>
<path d="M241 279.5H204.5V345.5H209V316H240V312H209V283H241V279.5Z" fill="#0046AA"/>
<path d="M381 345.5C381.4 345.5 370.167 325.5 364.5 315.5L371.489 311.822C373.141 310.952 374.571 309.715 375.669 308.205V308.205C377.184 306.122 378 303.613 378 301.037V297.274C378 293.162 377.137 288.944 374.379 285.894C373.563 284.991 372.638 284.078 371.5 283V283C366.416 278.985 359.23 279.5 352.752 279.5H338.5V345.5H342V317H360.5L377 345.5M381 345.5C380.6 345.5 378.167 345.5 377 345.5M381 345.5H377M413.5 345.5V284L439.5 344H442.5L468 284V345.5H472V278.5H465.5L440.5 338.5L416 278.5H409.5V345.5H413.5ZM413.5 345.5H409M219.5 261.5V226.5H247.5V261.5H269V177H247.5V208H219.5V177H198V261.5H219.5ZM241 279.5H204.5V345.5H209V316H240V312H209V283H241V279.5ZM383.5 261.5V177H411.5L431.5 238L451 177H479V261.5H459V200.5L440.5 260.5H420.5L402.5 200.5V261.5H383.5ZM499 261.5V177H548V194.5H521V209.5H545.5V226.5H521V243.5H548V261.5H499ZM342 313V283H359.122C360.703 283 362.289 283.127 363.825 283.504C364.787 283.739 365.622 283.992 366.455 284.313C368.18 284.979 369.565 286.277 370.653 287.773V287.773C372.178 289.87 373 292.397 373 294.991V299.411C373 302.99 371.578 306.422 369.048 308.952V308.952C368.023 309.977 366.839 310.831 365.542 311.479L365.463 311.518C363.514 312.493 361.366 313 359.187 313H342ZM256.5 345.5L285.5 277L314 345.5H309L299 321.5H271L262 345.5H256.5ZM273 318L285.5 286L298 318H273ZM496.5 345.5L525 277L553 345.5H548L538.5 321.5H511L502 345.5H496.5ZM511 318L525 286L538.5 318H511ZM326.718 243.5V243.5C330.984 243.5 334.998 241.478 337.537 238.05L339.542 235.344C342.112 231.873 343.5 227.669 343.5 223.35V211.81C343.5 207.41 341.957 203.149 339.14 199.768L337.792 198.15C335.072 194.887 331.044 193 326.796 193V193C322.784 193 318.956 194.684 316.245 197.641L314.58 199.458C311.306 203.03 309.447 207.672 309.35 212.517L309.16 222.001C309.057 227.154 310.846 232.167 314.188 236.09L316.468 238.767C319.026 241.77 322.773 243.5 326.718 243.5ZM360.217 194.435L361.588 197.176C364.489 202.979 366 209.378 366 215.865V225.641C366 231.138 364.72 236.56 362.262 241.477V241.477C359.47 247.06 355.253 251.805 350.036 255.233L349.713 255.446C343.703 259.395 336.668 261.5 329.476 261.5H326.867C319.419 261.5 312.102 259.546 305.646 255.834L303.649 254.686C298.315 251.619 293.908 247.169 290.891 241.807V241.807C288.012 236.689 286.5 230.915 286.5 225.043V216.958C286.5 209.779 288.383 202.724 291.962 196.5L292.611 195.372C296.129 189.254 301.338 184.283 307.614 181.056V181.056C312.797 178.39 318.54 177 324.368 177H332.007C337.57 177 343.034 178.471 347.845 181.265V181.265C353.165 184.354 357.466 188.932 360.217 194.435Z" stroke="black"/>
</svg>
