<svg width="80" height="80" viewBox="0 0 80 80" fill="none" xmlns="http://www.w3.org/2000/svg">
<g clip-path="url(#clip0_7_50)">
<path d="M1.50314e-05 12.5C1.50314e-05 10.5109 0.790191 8.60322 2.19671 7.1967C3.60324 5.79018 5.51089 5 7.50001 5H62.5C64.4891 5 66.3968 5.79018 67.8033 7.1967C69.2098 8.60322 70 10.5109 70 12.5V65.14C70 66.64 69.75 68.41 68.81 70H72.5C73.1631 70 73.7989 69.7366 74.2678 69.2678C74.7366 68.7989 75 68.163 75 67.5V22.5C75 21.837 75.2634 21.2011 75.7322 20.7322C76.2011 20.2634 76.837 20 77.5 20C78.1631 20 78.7989 20.2634 79.2678 20.7322C79.7366 21.2011 80 21.837 80 22.5V67.5C80 69.4891 79.2098 71.3968 77.8033 72.8033C76.3968 74.2098 74.4891 75 72.5 75H7.48501C6.50081 75 5.52626 74.8059 4.61716 74.4288C3.70806 74.0517 2.88225 73.499 2.18701 72.8024C1.49177 72.1058 0.940739 71.2788 0.565466 70.369C0.190192 69.4591 -0.00195733 68.4842 1.50314e-05 67.5V12.5ZM60 70C61.85 70 63.27 68.945 64.265 67.795C64.725 67.265 65 66.4 65 65.14V12.5C65 11.837 64.7366 11.2011 64.2678 10.7322C63.7989 10.2634 63.1631 10 62.5 10H7.50001C6.83697 10 6.20109 10.2634 5.73225 10.7322C5.26341 11.2011 5.00001 11.837 5.00001 12.5V67.5C5.00001 68.89 6.11502 70 7.48501 70H60Z" fill="black"/>
<path d="M10 15H60V25H10V15ZM10 30H30V45H10V30ZM10 50H30V55H10V50ZM10 60H30V65H10V60ZM35 30H45V35H35V30ZM50 30H60V35H50V30ZM35 40H45V45H35V40ZM50 40H60V45H50V40ZM35 50H45V55H35V50ZM50 50H60V55H50V50ZM35 60H45V65H35V60ZM50 60H60V65H50V60Z" fill="black"/>
</g>
<defs>
<clipPath id="clip0_7_50">
<rect width="80" height="80" fill="white"/>
</clipPath>
</defs>
</svg>
