<svg width="58" height="80" viewBox="0 0 58 80" fill="none" xmlns="http://www.w3.org/2000/svg">
<path d="M5.37572 24.3133C5.37572 24.3133 5.06507 17.9595 13.7148 17.7945H18.4109L20.0589 20.4981L21.7043 17.7945H25.8035C25.8035 17.7945 33.4703 17.7096 34.0309 24.3133V32.6936H28.9415V25.3569L27.2936 25.3521V32.6936H12.045L12.062 25.4224H10.4651V32.6936H5.37572V24.3133ZM20.0589 15.8529C23.3862 15.8529 26.085 13.1541 26.085 9.82678C26.085 6.49941 23.3862 3.80063 20.0589 3.80063C16.7315 3.80063 14.0327 6.49941 14.0327 9.82678C14.0327 13.1541 16.7315 15.8529 20.0589 15.8529ZM12.0669 80H27.3325L34.742 41.0861H4.64035L12.0669 80ZM57.1574 8.13761C57.1574 12.4479 52.3981 15.9597 46.3817 16.2461C43.2048 18.8138 37.6932 20.3137 37.6932 20.3137C40.2803 17.9644 40.5449 16.3116 40.3774 15.3918C36.6107 14.0545 34.0285 11.3145 34.0285 8.14004C34.0285 3.64287 39.2052 0 45.5929 0C51.9807 0 57.1598 3.64287 57.1574 8.13761ZM52.4467 10.1593C52.4467 9.75882 52.1239 9.43846 51.721 9.43846H39.46C39.0596 9.43846 38.7392 9.75882 38.7392 10.1593C38.7392 10.5597 39.0596 10.8801 39.46 10.8801H51.721C52.1239 10.8801 52.4467 10.5597 52.4467 10.1593ZM52.4467 6.22759C52.4467 5.82957 52.1239 5.50435 51.721 5.50435H39.46C39.0596 5.50435 38.7392 5.82957 38.7392 6.22759C38.7392 6.62561 39.0596 6.95082 39.46 6.95082H51.721C52.1239 6.95082 52.4467 6.62561 52.4467 6.22759ZM0 39.5765H39.392V33.7858H0V39.5765Z" fill="#010002"/>
</svg>
